<svg width="32" height="31" viewBox="0 0 32 31" fill="none" xmlns="http://www.w3.org/2000/svg">
<rect x="0.839355" y="0.0397949" width="30.72" height="30.72" fill="#16A7F6"/>
<path d="M23.729 7.75916C23.6354 7.70576 23.5203 7.70666 23.4276 7.7615L17.9299 11.0125C17.7872 11.0968 17.74 11.2808 17.8243 11.4234C17.9086 11.566 18.0926 11.6133 18.2352 11.529L22.1798 9.19643L14.8324 16.82L11.1781 15.702L15.9472 12.8819C16.0898 12.7976 16.137 12.6136 16.0527 12.471C15.9684 12.3284 15.7844 12.2811 15.6418 12.3654L10.2873 15.5317C10.185 15.5922 10.128 15.7074 10.1421 15.8254C10.1561 15.9435 10.2386 16.0421 10.3522 16.0768L14.7164 17.412L16.6417 20.9165C16.6437 20.9201 16.6458 20.9232 16.6479 20.9259C16.6801 20.9795 16.7282 21.0233 16.7883 21.0485C16.8259 21.0643 16.8654 21.072 16.9046 21.072C16.9815 21.072 17.0572 21.0425 17.1144 20.9866L19.3282 18.8229L23.4925 20.0969C23.5213 20.1057 23.5509 20.1101 23.5803 20.1101C23.6438 20.1101 23.7065 20.0899 23.7587 20.0512C23.8352 19.9946 23.8803 19.9052 23.8803 19.8101V8.01974C23.8803 7.91201 23.8225 7.81253 23.729 7.75916ZM16.6581 17.5969C16.6233 17.6471 16.6047 17.7067 16.6047 17.7677V19.6029L15.29 17.2099L21.1078 11.1734L16.6581 17.5969ZM17.2047 20.0593V18.1733L18.6745 18.6229L17.2047 20.0593ZM23.2803 19.4045L17.3852 17.601L23.2803 9.09089V19.4045Z" fill="white"/>
<path d="M13.4528 18.1471C13.3356 18.03 13.1457 18.03 13.0285 18.1471L10.2278 20.9478C10.1107 21.0649 10.1107 21.2549 10.2278 21.3721C10.2864 21.4306 10.3632 21.4599 10.44 21.4599C10.5168 21.4599 10.5935 21.4306 10.6521 21.372L13.4528 18.5714C13.5699 18.4543 13.5699 18.2643 13.4528 18.1471Z" fill="white"/>
<path d="M9.72144 21.8779C9.60426 21.7608 9.41435 21.7608 9.29717 21.8779L8.60715 22.5679C8.49 22.6851 8.49 22.875 8.60715 22.9922C8.66574 23.0508 8.74252 23.08 8.81929 23.08C8.89606 23.08 8.97283 23.0507 9.03142 22.9922L9.72144 22.3022C9.83859 22.185 9.83859 21.995 9.72144 21.8779Z" fill="white"/>
<path d="M12.7983 22.5501C12.7426 22.4943 12.6652 22.4622 12.5864 22.4622C12.5072 22.4622 12.4302 22.4943 12.3745 22.5501C12.3187 22.6058 12.2866 22.6829 12.2866 22.762C12.2866 22.8408 12.3187 22.9182 12.3745 22.9739C12.4302 23.0297 12.5076 23.0618 12.5864 23.0618C12.6652 23.0618 12.7426 23.0297 12.7983 22.9739C12.8541 22.9182 12.8862 22.8408 12.8862 22.762C12.8862 22.6829 12.8541 22.6058 12.7983 22.5501Z" fill="white"/>
<path d="M15.0302 20.3184C14.9131 20.2012 14.7232 20.2012 14.606 20.3184L13.1225 21.8018C13.0054 21.9189 13.0054 22.1089 13.1225 22.2261C13.1811 22.2846 13.2579 22.3139 13.3347 22.3139C13.4114 22.3139 13.4882 22.2846 13.5468 22.2261L15.0302 20.7427C15.1474 20.6255 15.1474 20.4355 15.0302 20.3184Z" fill="white"/>
<path d="M20.1509 20.204C20.0337 20.0869 19.8438 20.0869 19.7266 20.204L18.2392 21.6914C18.122 21.8086 18.122 21.9985 18.2392 22.1157C18.2978 22.1743 18.3745 22.2036 18.4513 22.2036C18.5281 22.2036 18.6049 22.1743 18.6634 22.1157L20.1509 20.6283C20.268 20.5111 20.268 20.3212 20.1509 20.204Z" fill="white"/>
<path d="M17.0237 11.8088C16.968 11.753 16.8906 11.7209 16.8118 11.7209C16.733 11.7209 16.6556 11.753 16.5999 11.8088C16.5441 11.8645 16.512 11.9419 16.512 12.021C16.512 12.0999 16.5441 12.1769 16.5999 12.2327C16.6556 12.2887 16.733 12.3205 16.8118 12.3205C16.8906 12.3205 16.968 12.2887 17.0237 12.2327C17.0795 12.1769 17.1116 12.0999 17.1116 12.021C17.1116 11.9419 17.0795 11.8645 17.0237 11.8088Z" fill="white"/>
</svg>
