<svg width="31" height="31" viewBox="0 0 31 31" fill="none" xmlns="http://www.w3.org/2000/svg">
<rect x="0.160278" y="0.0397949" width="30.72" height="30.72" fill="#16A7F6"/>
<path d="M20.2549 7.72352L17.7988 7.71979C15.0395 7.71979 13.2563 9.45077 13.2563 12.1299V14.1633H10.7867C10.5733 14.1633 10.4005 14.327 10.4005 14.5289V17.475C10.4005 17.6769 10.5735 17.8404 10.7867 17.8404H13.2563V25.2744C13.2563 25.4763 13.4291 25.6398 13.6425 25.6398H16.8645C17.0779 25.6398 17.2507 25.4761 17.2507 25.2744V17.8404H20.1381C20.3515 17.8404 20.5243 17.6769 20.5243 17.475L20.5255 14.5289C20.5255 14.4319 20.4847 14.3391 20.4124 14.2705C20.3401 14.2019 20.2415 14.1633 20.1391 14.1633H17.2507V12.4396C17.2507 11.6111 17.4593 11.1905 18.6 11.1905L20.2545 11.19C20.4677 11.19 20.6405 11.0263 20.6405 10.8246V8.08891C20.6405 7.88739 20.4679 7.72389 20.2549 7.72352Z" fill="white"/>
</svg>
