<svg width="31" height="31" viewBox="0 0 31 31" fill="none" xmlns="http://www.w3.org/2000/svg">
<rect x="-0.000732422" y="0.0397949" width="30.72" height="30.72" fill="#16A7F6"/>
<path d="M22.0173 14.3757V12.3277H20.9933V14.3757H18.9453V15.3997H20.9933V17.4477H22.0173V15.3997H24.0653V14.3757H22.0173Z" fill="white"/>
<path d="M12.7999 14.3758V16.4238H15.6968C15.2739 17.6158 14.1352 18.4718 12.7999 18.4718C11.1062 18.4718 9.7279 17.0935 9.7279 15.3998C9.7279 13.7061 11.1062 12.3278 12.7999 12.3278C13.5341 12.3278 14.2407 12.591 14.7895 13.0692L16.1351 11.525C15.2135 10.7222 14.0297 10.2798 12.7999 10.2798C9.97673 10.2798 7.6799 12.5767 7.6799 15.3998C7.6799 18.223 9.97673 20.5198 12.7999 20.5198C15.6231 20.5198 17.9199 18.223 17.9199 15.3998V14.3758H12.7999Z" fill="white"/>
</svg>
