<svg width="83" height="81" viewBox="0 0 83 81" fill="none" xmlns="http://www.w3.org/2000/svg">
<rect x="0.359619" y="0.680054" width="40.96" height="79.36" fill="#48BAFF"/>
<rect x="41.3205" y="0.680054" width="40.96" height="79.36" fill="#5EC2FE"/>
<path d="M41.3335 43.691V30.0125C40.9457 30.0483 40.5624 30.1088 40.1723 30.1268H29.0044C28.3857 30.1268 27.8836 30.6289 27.8836 31.2476V32.3684H24.5211C23.9024 32.3684 23.4003 32.8706 23.4003 33.4893V40.2142C23.4003 40.8329 23.9024 41.335 24.5211 41.335H27.8836V42.4559C27.8836 43.0746 28.3857 43.5767 29.0044 43.5767H29.6836L34.1894 55.5875C34.4651 56.3071 35.0815 56.8294 35.8392 56.9818C35.9894 57.0132 36.1396 57.0289 36.2875 57.0289C36.8861 57.0289 37.4554 56.7913 37.8634 56.3653L40.5557 53.6955C41.2438 53.0073 41.4075 51.9336 40.9681 51.1019L37.2066 43.5767H40.1835C40.5691 43.5946 40.9502 43.6552 41.3335 43.691Z" fill="white"/>
<path d="M59.0828 21.7025C59.0604 21.6644 59.0402 21.633 59.0111 21.5972C58.8878 21.4402 58.7331 21.3125 58.5426 21.2385C58.5358 21.2363 58.5314 21.2273 58.5246 21.225C58.5022 21.2183 58.482 21.2295 58.4596 21.2228C58.3588 21.1937 58.2579 21.16 58.1458 21.16C58.0696 21.16 58.0023 21.1892 57.9284 21.2049C57.8858 21.2138 57.8454 21.2161 57.8028 21.2295C57.61 21.2923 57.4442 21.3999 57.3119 21.5478C57.3029 21.5568 57.2895 21.559 57.2805 21.568C53.7858 25.8115 48.9124 28.6494 43.575 29.6895V44.0159C48.9124 45.0561 53.7858 47.8918 57.2805 52.1352C57.2895 52.1464 57.3052 52.1509 57.3164 52.1644C57.3948 52.2518 57.4912 52.3213 57.5944 52.3796C57.628 52.3997 57.6549 52.4289 57.6885 52.4446C57.8297 52.5051 57.9822 52.5432 58.1458 52.5432C58.2736 52.5432 58.3991 52.5208 58.5246 52.4782C58.5314 52.4759 58.5358 52.467 58.5426 52.4647C58.7331 52.3908 58.8878 52.2652 59.0111 52.1061C59.038 52.0702 59.0582 52.0388 59.0828 52.0007C59.1904 51.8281 59.2666 51.6376 59.2666 51.4224V22.2809C59.2666 22.0657 59.1904 21.8751 59.0828 21.7025Z" fill="white"/>
</svg>
