<svg width="83" height="80" viewBox="0 0 83 80" fill="none" xmlns="http://www.w3.org/2000/svg">
<rect x="0.160492" y="0.359863" width="40.96" height="79.36" fill="#48BAFF"/>
<rect x="41.1205" y="0.359894" width="40.96" height="79.36" fill="#5EC2FE"/>
<path d="M41.1211 59.6918C41.9527 59.6918 42.6269 59.0176 42.6269 58.1859C42.6269 57.3542 41.9527 56.68 41.1211 56.68C40.2894 56.68 39.6152 57.3542 39.6152 58.1859C39.6152 59.0176 40.2894 59.6918 41.1211 59.6918Z" fill="white"/>
<path d="M50.6038 18.2801H31.6372C29.8083 18.2801 28.3205 19.7686 28.3205 21.5968V60.1391C28.3205 61.968 29.8083 63.4565 31.6372 63.4565H50.603C52.4327 63.4565 53.9205 61.968 53.9205 60.1398V21.5968C53.9205 19.7686 52.4327 18.2801 50.6038 18.2801ZM43.3793 20.5389H44.1323C44.5479 20.5389 44.8852 20.8754 44.8852 21.2918C44.8852 21.7082 44.5479 22.0448 44.1323 22.0448H43.3793C42.9637 22.0448 42.6264 21.7082 42.6264 21.2918C42.6264 20.8754 42.9637 20.5389 43.3793 20.5389ZM38.1087 20.5389H41.1205C41.5361 20.5389 41.8734 20.8754 41.8734 21.2918C41.8734 21.7082 41.5361 22.0448 41.1205 22.0448H38.1087C37.6931 22.0448 37.3558 21.7082 37.3558 21.2918C37.3558 20.8754 37.6931 20.5389 38.1087 20.5389ZM41.1205 61.1977C39.4595 61.1977 38.1087 59.8469 38.1087 58.1859C38.1087 56.525 39.4595 55.1742 41.1205 55.1742C42.7815 55.1742 44.1323 56.525 44.1323 58.1859C44.1323 59.8469 42.7815 61.1977 41.1205 61.1977ZM52.4146 52.9154H29.8264V24.3036H52.4146V52.9154Z" fill="white"/>
</svg>
