<svg width="82" height="80" viewBox="0 0 82 80" fill="none" xmlns="http://www.w3.org/2000/svg">
<rect x="0.0404663" y="0.359863" width="40.96" height="79.36" fill="#48BAFF"/>
<rect x="41.0005" y="0.359894" width="40.96" height="79.36" fill="#5EC2FE"/>
<path d="M62.1329 25.9599L48.7714 34.4293L34.6012 42.5999L20.5212 37.37L62.1329 25.9599ZM34.995 50.8716L35.8812 42.5999L39.5498 47.5089L34.995 50.8716ZM45.6068 55.8521L35.8812 42.5999L62.1329 25.9599L45.6068 55.8521Z" fill="white"/>
<path d="M62.1329 25.9599L48.7714 34.4293L34.6012 42.5999L20.5212 37.37L62.1329 25.9599Z" fill="white"/>
<path d="M45.6068 55.8521L35.8812 42.5999L62.1329 25.9599L45.6068 55.8521Z" fill="white"/>
<path d="M34.995 50.8716L35.8812 42.5999L39.5498 47.5089L34.995 50.8716Z" fill="white"/>
</svg>
