<svg width="32" height="31" viewBox="0 0 32 31" fill="none" xmlns="http://www.w3.org/2000/svg">
<rect x="0.320312" y="0.0397949" width="30.72" height="30.72" fill="#16A7F6"/>
<path d="M26.7259 21.3062C26.6999 21.2504 26.6758 21.2041 26.6534 21.167C26.2821 20.4983 25.5726 19.6775 24.5253 18.7044L24.5031 18.6822L24.4921 18.6712L24.4809 18.66H24.4696C23.9943 18.2069 23.6933 17.9022 23.5672 17.7463C23.3366 17.4491 23.2849 17.1484 23.411 16.8436C23.5 16.6134 23.8346 16.1271 24.4138 15.3842C24.7184 14.9905 24.9597 14.6749 25.1379 14.4372C26.423 12.7287 26.9802 11.637 26.8093 11.1615L26.7429 11.0504C26.6983 10.9835 26.5831 10.9223 26.3977 10.8665C26.2118 10.8108 25.9741 10.8016 25.6844 10.8387L22.4756 10.8609C22.4236 10.8425 22.3494 10.8442 22.2527 10.8665C22.1561 10.8889 22.1078 10.9001 22.1078 10.9001L22.052 10.928L22.0076 10.9615C21.9705 10.9836 21.9296 11.0226 21.885 11.0784C21.8406 11.1339 21.8035 11.1991 21.7739 11.2733C21.4245 12.1721 21.0273 13.0077 20.5815 13.7802C20.3067 14.2408 20.0543 14.64 19.8238 14.978C19.5936 15.3158 19.4004 15.5648 19.2446 15.7244C19.0885 15.8841 18.9476 16.012 18.8211 16.1087C18.6947 16.2054 18.5983 16.2463 18.5315 16.2313C18.4646 16.2164 18.4016 16.2016 18.3419 16.1867C18.238 16.1198 18.1544 16.0289 18.0914 15.9137C18.0281 15.7986 17.9855 15.6537 17.9632 15.4792C17.941 15.3045 17.9279 15.1542 17.9242 15.0279C17.9207 14.9018 17.9223 14.7233 17.9298 14.4931C17.9375 14.2627 17.941 14.1068 17.941 14.0251C17.941 13.7428 17.9465 13.4364 17.9576 13.1059C17.9688 12.7753 17.9779 12.5134 17.9855 12.3205C17.9931 12.1274 17.9966 11.923 17.9966 11.7076C17.9966 11.4922 17.9835 11.3233 17.9576 11.2007C17.932 11.0782 17.8927 10.9593 17.8409 10.8441C17.7888 10.729 17.7125 10.6399 17.6125 10.5767C17.5122 10.5136 17.3876 10.4634 17.2392 10.4262C16.8455 10.3371 16.3442 10.2889 15.735 10.2814C14.3534 10.2666 13.4657 10.3558 13.0721 10.5489C12.9161 10.6305 12.7749 10.742 12.6487 10.8831C12.515 11.0465 12.4963 11.1358 12.5929 11.1504C13.0386 11.2172 13.3542 11.3769 13.5399 11.6295L13.6068 11.7633C13.6589 11.8598 13.7109 12.0308 13.7629 12.2758C13.8148 12.5209 13.8483 12.792 13.8631 13.089C13.9002 13.6313 13.9002 14.0955 13.8631 14.4817C13.8259 14.8681 13.7908 15.1688 13.7573 15.3843C13.7237 15.5997 13.6736 15.7742 13.6068 15.9079C13.5399 16.0416 13.4954 16.1233 13.473 16.153C13.4508 16.1826 13.4322 16.2013 13.4174 16.2087C13.3209 16.2456 13.2205 16.2645 13.1166 16.2645C13.0125 16.2645 12.8863 16.2124 12.7377 16.1084C12.5893 16.0044 12.4351 15.8615 12.2754 15.6794C12.1157 15.4974 11.9356 15.243 11.7349 14.9162C11.5345 14.5894 11.3265 14.2032 11.111 13.7575L10.9328 13.4343C10.8214 13.2264 10.6692 12.9236 10.4761 12.5263C10.2828 12.1289 10.112 11.7444 9.96352 11.373C9.90416 11.217 9.81499 11.0983 9.69616 11.0165L9.6404 10.983C9.60332 10.9534 9.54381 10.9219 9.46217 10.8883C9.38041 10.8548 9.2951 10.8307 9.20589 10.816L6.15303 10.8381C5.84107 10.8381 5.6294 10.9088 5.51795 11.0499L5.47334 11.1167C5.45106 11.1539 5.43982 11.2133 5.43982 11.2951C5.43982 11.3768 5.4621 11.4771 5.50671 11.5958C5.95237 12.6432 6.43702 13.6534 6.96065 14.6264C7.48428 15.5995 7.93931 16.3833 8.32546 16.9772C8.71169 17.5715 9.10537 18.1324 9.5065 18.6596C9.90764 19.187 10.1732 19.525 10.3031 19.6735C10.4331 19.8223 10.5353 19.9335 10.6096 20.0077L10.8882 20.2751C11.0664 20.4534 11.3282 20.6669 11.6736 20.9157C12.0191 21.1647 12.4016 21.4097 12.8213 21.6513C13.241 21.8926 13.7293 22.0894 14.2865 22.2416C14.8436 22.394 15.3858 22.4552 15.9132 22.4257H17.1945C17.4544 22.4032 17.6513 22.3215 17.7851 22.1805L17.8294 22.1246C17.8592 22.0803 17.8871 22.0114 17.9129 21.9187C17.939 21.8259 17.9519 21.7236 17.9519 21.6124C17.9443 21.293 17.9686 21.0052 18.0242 20.749C18.0797 20.4928 18.143 20.2997 18.2138 20.1696C18.2846 20.0397 18.3644 19.93 18.4533 19.8411C18.5423 19.752 18.6058 19.698 18.643 19.6795C18.68 19.6608 18.7095 19.6481 18.7318 19.6405C18.9101 19.5811 19.1199 19.6386 19.3615 19.8133C19.603 19.9879 19.8294 20.2034 20.0412 20.4596C20.253 20.716 20.5073 21.0036 20.8044 21.323C21.1016 21.6424 21.3615 21.8799 21.5843 22.0361L21.807 22.1698C21.9558 22.259 22.1489 22.3407 22.3867 22.415C22.624 22.4892 22.8319 22.5078 23.0104 22.4707L25.8626 22.4262C26.1447 22.4262 26.3643 22.3795 26.52 22.2868C26.676 22.1939 26.7687 22.0917 26.7986 21.9804C26.8284 21.869 26.83 21.7427 26.8042 21.6014C26.7778 21.4605 26.7518 21.3619 26.7259 21.3062Z" fill="white"/>
</svg>
